<svg width="243" height="32" viewBox="0 0 243 32" fill="none" xmlns="http://www.w3.org/2000/svg">
<path d="M12.7045 20.3996H25.2485L20.8888 25H11.9021C6.31212 25 2.59439 21.63 2.59439 17.1099C2.59439 11.2257 8.2111 7.10675 15.0581 7.10675H27.6021L23.2158 11.7606H14.229C10.9392 11.7606 8.15761 13.8736 8.15761 16.7087C8.15761 18.9286 10.0031 20.3996 12.7045 20.3996ZM51.2686 7.10675L48.0858 25H42.5761L43.8064 18.0995H33.1347L31.9311 25H26.3678L29.5507 7.10675H35.0871L33.937 13.4456H44.6088L45.7321 7.10675H51.2686ZM67.2215 6.81254C74.9512 6.81254 78.8561 9.19296 78.8561 14.3817C78.8561 21.737 73.9883 25.2942 63.9585 25.2942C56.2288 25.2942 52.3238 22.887 52.3238 17.6983C52.3238 10.343 57.1917 6.81254 67.2215 6.81254ZM64.7609 20.6404C71.9556 20.6404 73.2929 19.517 73.2929 14.9434C73.2929 12.0548 71.2602 11.4664 66.3924 11.4664C59.1976 11.4664 57.8871 12.563 57.8871 17.1633C57.8871 20.0519 59.9465 20.6404 64.7609 20.6404ZM95.6133 6.81254C103.343 6.81254 107.248 9.19296 107.248 14.3817C107.248 21.737 102.38 25.2942 92.3503 25.2942C84.6206 25.2942 80.7156 22.887 80.7156 17.6983C80.7156 10.343 85.5835 6.81254 95.6133 6.81254ZM93.1527 20.6404C100.347 20.6404 101.685 19.517 101.685 14.9434C101.685 12.0548 99.652 11.4664 94.7842 11.4664C87.5894 11.4664 86.2789 12.563 86.2789 17.1633C86.2789 20.0519 88.3383 20.6404 93.1527 20.6404ZM117.024 14.248H126.76C130.638 14.248 132.698 15.6388 132.698 18.3134C132.698 22.1916 130.264 25 123.898 25H107.235L111.595 20.3996H125.155C126.653 20.3996 127.295 19.9182 127.295 18.8751C127.295 18.153 126.733 17.8053 125.61 17.8053H115.847C111.782 17.8053 109.963 16.0935 109.963 13.4991C109.963 9.86161 112.451 7.10675 118.709 7.10675H134.249L129.863 11.7606H117.452C115.954 11.7606 115.313 12.1618 115.313 13.2316C115.313 13.9538 115.874 14.248 117.024 14.248ZM140.398 20.3996H155.643L151.257 25H134.032L137.215 7.10675H157.916L153.503 11.7606H141.922L141.548 13.9003H155.697L151.845 17.9657H140.826L140.398 20.3996Z" fill="url(#paint0_linear_137_630)"/>
<path d="M179.479 21.523L182.769 25H175.36L171.375 20.2659H162.87V25H157.333V15.8528H172.9C174.611 15.8528 175.949 15.0771 175.949 13.8468C175.949 12.456 174.798 11.7606 172.9 11.7606H157.333L160.944 7.10675H172.445C176.51 7.10675 181.646 8.39057 181.646 13.4991C181.646 16.2807 179.907 18.5809 176.965 19.1693C177.58 19.624 178.249 20.2659 179.479 21.523ZM190.377 7.10675V25H184.84V7.10675H190.377ZM204.04 20.3996H216.584L213.027 25H204.04C197.835 25 193.262 21.0683 193.262 15.8795C193.262 10.6373 197.835 7.10675 204.04 7.10675H216.584L213.027 11.7606H204.04C201.045 11.7606 198.798 13.5526 198.798 16.1202C198.798 18.6611 201.018 20.3996 204.04 20.3996ZM240.224 7.10675V25H234.714V18.0995H224.069V25H218.506V7.10675H224.069V13.4456H234.714V7.10675H240.224Z" fill="white"/>
<defs>
<linearGradient id="paint0_linear_137_630" x1="45.5" y1="-4.95238" x2="60.0455" y2="38.9779" gradientUnits="userSpaceOnUse">
<stop stop-color="#A581F9"/>
<stop offset="1" stop-color="#7B3EFE"/>
</linearGradient>
</defs>
</svg>
